<?xml version="1.0" encoding="UTF-8"?>
<svg id="Layer_1" data-name="Layer 1" xmlns="http://www.w3.org/2000/svg" version="1.1" xmlns:xlink="http://www.w3.org/1999/xlink" viewBox="0 0 500 500">
  <defs>
    <style>
      .cls-1 {
        fill: url(#linear-gradient);
      }

      .cls-1, .cls-2 {
        stroke-width: 0px;
      }

      .cls-2 {
        fill: url(#linear-gradient-2);
      }
    </style>
    <linearGradient id="linear-gradient" x1="50" y1="379.3" x2="50" y2="479.3" gradientTransform="translate(0 500) scale(1 -1)" gradientUnits="userSpaceOnUse">
      <stop offset="0" stop-color="#000"/>
      <stop offset="1" stop-color="#e056fd"/>
    </linearGradient>
    <linearGradient id="linear-gradient-2" x1="250" y1="500" x2="250" y2="0" xlink:href="#linear-gradient"/>
  </defs>
  <path class="cls-1" d="M100,50.4c0-13.9-5-25.6-15.2-35.2C75.2,5.1,63.5,0,49.6,0S24,5.1,14.4,15.2C4.8,24.8,0,36.5,0,50.4s4.8,25.6,14.4,35.2c9.6,9.6,21.4,14.4,35.2,14.4s25.6-4.8,35.2-14.4c10.2-9.6,15.2-21.3,15.2-35.2ZM67.2,68c-4.8,4.8-10.7,7.2-17.6,7.2s-12.8-2.4-17.6-7.2-7.2-10.7-7.2-17.6,2.4-12.8,7.2-17.6c4.8-5.3,10.7-8,17.6-8s12.8,2.7,17.6,8c5.3,4.8,8,10.7,8,17.6s-2.7,12.8-8,17.6Z"/>
  <path class="cls-2" d="M349.6,500l150.4-149.6V50.4c0-13.9-5.1-25.6-15.2-35.2C475.2,5.1,463.5,0,449.6,0s-25.6,5.1-35.2,15.2c-9.6,9.6-14.4,21.3-14.4,35.2v249.6l-100,100h-100l-100-100v-149.6c0-13.8-5-25.6-15.2-35.2-9.6-10.1-21.3-15.2-35.2-15.2s-25.6,5.1-35.2,15.2C4.8,124.8,0,136.5,0,150.4v200l149.6,149.6h200ZM448.1,22.2c15.4,0,27.9,12.5,27.9,27.9s-7.2,21.6-17.3,25.8c-3.3,1.3-6.8,2.1-10.6,2.1s-4.5-.8-6.7-1.4c-12.1-3.1-21.2-13.5-21.2-26.5,0-15.4,12.5-27.9,27.9-27.9ZM41.3,150.4c0-3.1.7-4.3,3.1-6.7,1.9-2,2.9-2.3,5.2-2.3s3.3.3,5.1,2.2l.8.9.9.8c1.9,1.8,2.2,2.6,2.2,5.1v166.7l12.1,12.1,100,100,12.1,12.1h134.2l12.1-12.1,100-100,12.1-12.1V96.4c2.3.3,4.4,1.4,6.7,1.4,3.7,0,7.1-1.3,10.6-2.1v237.6l-126.1,125.4h-165.8l-125.4-125.4v-182.9Z"/>
</svg>